<?xml version="1.0" encoding="UTF-8"?>
<svg id="Layer_1" xmlns="http://www.w3.org/2000/svg" xmlns:xlink="http://www.w3.org/1999/xlink" version="1.1" viewBox="0 0 157 156">
  <!-- Generator: Adobe Illustrator 29.4.0, SVG Export Plug-In . SVG Version: 2.1.0 Build 152)  -->
  <defs>
    <style>
      .st0 {
        fill: #b8965b;
      }

      .st1 {
        fill: #fff;
      }

      .st2 {
        fill: #115740;
        stroke: url(#linear-gradient);
        stroke-width: 3px;
      }
    </style>
    <linearGradient id="linear-gradient" x1="-7.6" y1="110.4" x2="164.6" y2="10.9" gradientUnits="userSpaceOnUse">
      <stop offset=".2" stop-color="#b9975b"/>
      <stop offset=".6" stop-color="#d5c19d"/>
      <stop offset="1" stop-color="#6f5b37"/>
    </linearGradient>
  </defs>
  <polygon class="st2" points="2 -1.7 2 123.4 78.5 154.3 155 123.4 155 -1.7 2 -1.7"/>
  <g>
    <path class="st0" d="M29.6,83.7c-.5-1-.7-1.9-.7-2.7,0-.9.3-1.8.8-2.6.6-.8,1.3-1.5,2.1-2,.9-.5,1.7-.8,2.7-.8,1,0,1.9.3,2.6.8.7.6,1,1.2,1,2s-.2,1.1-.5,1.7c-.3.5-.7.8-1,.8s-.3,0-.3-.3,0-.2.1-.5c.2-.4.2-.8.2-1.2,0-.6-.2-1.1-.7-1.4-.5-.4-1.1-.6-1.8-.5-1.1,0-2.1.5-3.1,1.4s-1.4,2-1.4,3.1c0,.5,0,1,.2,1.3s.3.6.4.7c.1.1.3.2.5.2,1.4,0,2.1.4,2.1,1.2,0,.2,0,.4-.2.6-.1.2-.4.3-.6.3s-.7-.2-1.2-.6c-.5-.4-1-.6-1.5-.6s-1.2.3-1.8.9c-.6.6-.8,1.4-.8,2.2,0,1.7.8,3.2,2.5,4.7,1.7,1.5,3.7,2.2,6.2,2.2,2.3,0,4.3-.6,5.9-1.8,1.6-1.2,2.5-2.6,2.5-4.2,0-1.1-.4-2-1.2-2.8-.8-.8-1.9-1.2-3.3-1.2-1.1,0-2.1.3-3,.9-.9.6-1.3,1.4-1.3,2.3,0,.6.2,1,.5,1.4.3.4.6.5,1,.5.4,0,.6-.2.6-.6v-.2c0-.1,0-.2,0-.3,0-.4.1-.8.4-1.1.2-.3.5-.4.9-.4s.6.1.9.4.4.6.4,1c0,.6-.2,1.1-.6,1.6s-1,.6-1.7.6c-.8,0-1.5-.3-2.1-.8s-.9-1.3-.9-2.1c0-1.2.5-2.3,1.5-3.3s2.9-1.5,5.6-1.5c2.4,0,4.2-.4,5.2-1,1.1-.7,1.6-1.7,1.6-3,0-.8-.2-1.4-.7-2-.5-.5-1.1-.8-1.8-.8s-.6,0-.8.2c-.2.1-.3.3-.3.5s0,.3.3.6c.2.3.3.6.3,1s-.1.7-.4,1c-.3.3-.6.4-1,.4-.5,0-.9-.2-1.1-.5s-.4-.7-.4-1.1c0-.7.3-1.3,1-1.8s1.5-.8,2.5-.8,1.9.4,2.6,1.1c.7.8,1.1,1.7,1.1,2.8,0,1-.3,2-.9,2.8s-1.3,1.4-2.3,1.8c-.9.4-2.2.6-3.9.6,1.6,1.1,2.4,2.5,2.4,4.3,0,1.3-.5,2.6-1.4,3.8-1,1.2-2.1,2.2-3.5,2.8s-3.1.9-5.1.9c-1.6,0-2.9-.2-3.9-.5s-2-.9-2.9-1.5c-.9-.7-1.6-1.5-2.2-2.5-.5-1-.8-2-.8-3.1,0-1.4.4-2.5,1.2-3.5.8-.9,1.9-1.5,3.5-1.7"/>
    <path class="st1" d="M39.3,69.3h-.7l-6.2-16.5-5.3,16.6h-.7l-4.9-15.6c-.4-1.4-.8-2.4-1-2.8-.2-.5-.4-.8-.8-1s-.8-.3-1.5-.4v-.7h7.5s0,.6,0,.6c-.9,0-1.5.2-1.7.4-.3.2-.4.5-.4.9s.2,1.2.6,2.5l3.6,11.7,5.2-16.1h.8l6,16.1,3-10.7c.4-1.4.6-2.4.6-2.8,0-1.3-.7-2-2.1-1.9v-.7h5.5s0,.7,0,.7c-.8,0-1.4.4-1.8.9-.4.5-.9,1.8-1.5,3.9l-4.3,15.1h0ZM128.2,87.8l3.3-5.7c.6-.9.8-1.6.8-2s-.2-.7-.4-1c-.3-.3-.8-.4-1.6-.4v-.6h5.6s0,.5,0,.5c-.8.1-1.4.4-1.9.9-.5.5-1.1,1.3-1.8,2.6l-3.8,6.4v2.3c0,1.5,0,2.4.2,2.8,0,.4.3.7.6.8.3.2.9.2,1.7.2v.6h-7.3s0-.5,0-.5h.3c.7,0,1.2-.1,1.5-.3.3-.2.5-.5.5-.9s.1-1.3.1-2.7v-2.1s-4.3-7-4.3-7c-.9-1.4-1.5-2.3-1.7-2.5s-.8-.4-1.5-.4v-.6h7s0,.5,0,.5c-1.3,0-1.9.3-1.9.9,0,.2.2.7.7,1.4l4.1,6.7h0ZM107.9,86.6c.6,0,1.3,0,2,0,.7,0,1.3-.1,1.8-.3.5-.2.9-.4,1.2-.7s.5-.7.7-1.1c.2-.5.3-1.1.3-1.7,0-1.2-.3-2.2-.9-2.9-.6-.7-1.9-1.1-3.9-1.1-.3,0-.7,0-1.1,0v7.8h0ZM120.9,95.4h-4.6c-.8-.5-2.1-2-3.8-4.5-.5-.8-1.1-1.5-1.7-2.2-.6-.7-1-1.1-1.2-1.3s-.6-.2-1-.2h-.7v3.8c0,1.3,0,2.2.1,2.7,0,.4.2.7.5.9.3.2.8.3,1.6.3h.8v.6h-8.2s0-.5,0-.5h.6c.7,0,1.2-.1,1.5-.3s.5-.5.5-.9.1-1.3.1-2.7v-8.4c0-1.4-.1-2.2-.2-2.6s-.2-.7-.5-.8c-.3-.1-.8-.2-1.7-.2h-.3v-.6h2.5c1.6-.2,2.9-.3,3.9-.3,1.6,0,3,.1,4,.4,1,.3,1.9.8,2.5,1.5.6.7,1,1.5,1,2.5,0,1.1-.4,2.1-1.2,2.9-.8.8-2,1.3-3.6,1.5.7.3,1.9,1.6,3.5,3.7,1.3,1.7,2.3,2.9,3.1,3.4s1.6.8,2.6.8v.6h0ZM94.4,88.6l-3.1-7.3-3,7.3h6.1s0,0,0,0ZM94.6,89.2h-6.5s-.4,1.1-.4,1.1c-.6,1.6-1,2.6-1,3.1s.2.9.5,1.2c.4.3.8.4,1.3.4v.6h-5.1s0-.6,0-.6c.8-.1,1.3-.4,1.7-.8.4-.4.8-1.3,1.3-2.6,0-.1.2-.6.6-1.5l4.9-11.9h.5l5.8,13.6.8,1.8c.2.4.4.7.7,1s.7.4,1.3.4v.6h-6.7s0-.5,0-.5c.8,0,1.4,0,1.7-.2.3-.1.4-.4.4-.7s-.2-.7-.6-1.7l-1.3-3.2h0ZM68.4,92.1l7.4-17h6.3s0,.7,0,.7h-.8c-1,0-1.7,0-2,.3-.3.2-.5.5-.6.9-.1.5-.1,1.5-.1,3.2v10.1c0,1.6.1,2.7.2,3.2,0,.5.3.9.6,1.1.3.2,1,.4,1.9.4h.9v.7h-9.8c0,0,0-.6,0-.6h.7c.9,0,1.5-.1,1.8-.3.3-.2.6-.6.6-1,0-.5.1-1.6.1-3.3v-13.1c0,0-8.1,18.5-8.1,18.5h-.7l-8.3-18.4v12c0,1.6.1,2.8.2,3.4s.4,1.1.9,1.6,1.3.7,2.2.8v.7h-7.3s0-.7,0-.7c.9,0,1.6-.3,2.1-.7.5-.4.9-1,1-1.6.1-.6.2-1.8.2-3.5v-8.9c0-1.6-.1-2.7-.2-3.2,0-.5-.3-.8-.6-1s-1-.3-2-.3h-.6v-.7h6.3s7.6,16.9,7.6,16.9h0ZM127.2,65.9l6.2-14.2h5.3s0,.6,0,.6h-.6c-.8,0-1.4,0-1.7.2s-.4.4-.5.8c0,.4-.1,1.3-.1,2.7v8.4c0,1.3,0,2.2.2,2.7,0,.4.2.7.5.9.3.2.8.3,1.6.3h.8v.6h-8.2s0-.5,0-.5h.6c.7,0,1.2-.1,1.5-.3.3-.2.5-.5.5-.9,0-.4.1-1.3.1-2.7v-10.9c0,0-6.8,15.4-6.8,15.4h-.6l-6.9-15.4v10.1c0,1.4.1,2.3.2,2.8,0,.5.4.9.8,1.3s1.1.6,1.9.6v.6h-6.1s0-.5,0-.5c.7,0,1.3-.2,1.8-.6.5-.4.7-.8.8-1.3,0-.5.1-1.5.1-2.9v-7.5c0-1.4,0-2.2-.2-2.6,0-.4-.3-.7-.5-.8-.3-.1-.8-.2-1.7-.2h-.5v-.6h5.2s6.4,14.1,6.4,14.1h0ZM107.5,62l-3.1-7.3-3,7.3h6.1s0,0,0,0ZM107.7,62.6h-6.5s-.4,1.1-.4,1.1c-.6,1.6-1,2.6-1,3.1,0,.5.2.9.5,1.2s.8.4,1.3.4v.6h-5.1s0-.6,0-.6c.8-.1,1.3-.4,1.7-.8s.8-1.3,1.3-2.6c0-.1.2-.6.6-1.5l4.9-11.9h.5l5.8,13.6.8,1.8c.2.4.4.7.7,1,.3.2.7.4,1.3.4v.6h-6.7s0-.5,0-.5c.8,0,1.4,0,1.7-.2.3-.1.4-.4.4-.7,0-.2-.2-.7-.6-1.7l-1.3-3.2h0ZM87.4,52.5v-.6h7.8s0,.5,0,.5h-.4c-.8,0-1.4,0-1.7.2s-.4.4-.5.8c0,.4-.1,1.3-.1,2.7v8.4c0,1.3,0,2.2.2,2.7s.2.7.5.9c.3.2.8.3,1.6.3h.5v.6h-7.8s0-.5,0-.5h.5c.7,0,1.2-.1,1.5-.3.3-.2.5-.5.5-.9s.1-1.3,0-2.7v-8.4c0-1.4,0-2.2-.2-2.6,0-.4-.2-.7-.5-.8-.3-.1-.8-.2-1.7-.2h-.4,0ZM86.6,64v5.1c-.1,0-14.7,0-14.7,0v-.6h.5c.7,0,1.2-.1,1.5-.3s.5-.5.5-.9c0-.4.1-1.3.1-2.7v-8.4c0-1.4-.1-2.2-.2-2.6,0-.4-.3-.7-.5-.8-.3-.1-.8-.2-1.7-.2h-.4v-.6h8.2s0,.5,0,.5h-.8c-.8,0-1.4,0-1.7.2s-.4.4-.5.8-.1,1.3-.1,2.7v9c0,1.2,0,2,.2,2.3,0,.3.3.6.6.7.3.2.9.3,1.9.2h1.3c1.1,0,1.8-.1,2.3-.3.5-.2,1-.6,1.5-1.2.5-.6.9-1.6,1.2-3h.6,0ZM70.9,64.1v5.1c-.1,0-14.7,0-14.7,0v-.6h.5c.7,0,1.2-.1,1.5-.3.3-.2.5-.5.5-.9s.1-1.3.1-2.7v-8.4c0-1.4-.1-2.2-.2-2.6,0-.4-.3-.7-.5-.8-.3-.1-.8-.2-1.7-.2h-.4v-.6h8.2s0,.5,0,.5h-.8c-.8,0-1.4,0-1.7.2-.3.1-.4.4-.5.8,0,.4-.1,1.3-.1,2.7v9c0,1.2,0,2,.2,2.3,0,.3.3.6.6.7.3.2.9.3,1.9.2h1.3c1.1,0,1.8-.1,2.3-.3.5-.2,1-.6,1.5-1.2.5-.6.9-1.6,1.2-3h.6,0ZM46.9,52.7v-.6h7.8s0,.5,0,.5h-.4c-.8,0-1.4,0-1.7.2-.3.1-.4.4-.5.8,0,.4-.1,1.3-.1,2.7v8.4c0,1.3,0,2.2.2,2.7,0,.4.2.7.5.9.3.2.8.3,1.6.3h.5v.6h-7.8s0-.5,0-.5h.5c.7,0,1.2-.1,1.5-.3.3-.2.5-.5.5-.9s.1-1.3,0-2.7v-8.4c0-1.4,0-2.2-.2-2.6,0-.4-.2-.7-.5-.8-.3-.1-.8-.2-1.7-.2h-.4,0Z"/>
  </g>
</svg>